<svg xmlns="http://www.w3.org/2000/svg" viewBox="0 0 50.67 58.93"><rect x="0.5" y="0.5" width="49.67" height="57.93" rx="9.42" style="fill:none;stroke:#666;stroke-miterlimit:10"/><path d="M16.33,37a.94.94,0,0,1,1.34-.54c.39.15.87.3,1.44.46a7.88,7.88,0,0,0,2.08.24,7.77,7.77,0,0,0,1.95-.24,4.36,4.36,0,0,0,1.62-.78,3.87,3.87,0,0,0,1.1-1.41,4.81,4.81,0,0,0,.42-2.11V30.81a1.69,1.69,0,0,1,0-.33,3,3,0,0,1,.07-.32h-.07a5.09,5.09,0,0,1-4.8,2.75,7.14,7.14,0,0,1-3.05-.64,6.8,6.8,0,0,1-2.31-1.75,7.56,7.56,0,0,1-1.44-2.62,10.64,10.64,0,0,1-.49-3.31,10.27,10.27,0,0,1,.48-3.2,7.53,7.53,0,0,1,1.39-2.56,6.33,6.33,0,0,1,2.25-1.7,7.57,7.57,0,0,1,3.11-.61,6.12,6.12,0,0,1,2.48.44,5.72,5.72,0,0,1,1.55.94,3.77,3.77,0,0,1,1,1.34h.07a.17.17,0,0,1,0-.12,1.17,1.17,0,0,1,0-.39V17.8c0-.59.36-.89,1.06-.89h.77A.93.93,0,0,1,29.38,18V32.43a7.51,7.51,0,0,1-.7,3.41,6.69,6.69,0,0,1-1.84,2.28,7.3,7.3,0,0,1-2.58,1.3,10.69,10.69,0,0,1-2.91.4,13.24,13.24,0,0,1-2.56-.24,9.8,9.8,0,0,1-2.14-.66,1,1,0,0,1-.55-1.4Zm5.73-6.75A4.9,4.9,0,0,0,23.67,30,3.32,3.32,0,0,0,25.05,29,4.82,4.82,0,0,0,26,27.31a8.29,8.29,0,0,0,.35-2.63A8.31,8.31,0,0,0,26,22a4.39,4.39,0,0,0-1-1.68,3.36,3.36,0,0,0-1.42-.88,5.78,5.78,0,0,0-1.72-.26,4,4,0,0,0-3.34,1.43,5.92,5.92,0,0,0-1.14,3.82,6.53,6.53,0,0,0,1.24,4.19A4.1,4.1,0,0,0,22.06,30.22Z" transform="translate(-6.48 -9.36)" style="fill:#390"/><path d="M33.58,31.79a1.47,1.47,0,0,1,.7-1.28c1.36-.92,2.61-1.79,3.74-2.63a26.08,26.08,0,0,0,2.88-2.41,12,12,0,0,0,1.84-2.24,4.07,4.07,0,0,0,.66-2.13,3.07,3.07,0,0,0-.3-1.42,2.66,2.66,0,0,0-.82-1,3.56,3.56,0,0,0-1.18-.55A5.32,5.32,0,0,0,39.72,18a4.75,4.75,0,0,0-2.4.59,9.28,9.28,0,0,0-1.63,1.1.94.94,0,0,1-1.47-.13l-.36-.44a.93.93,0,0,1,.07-1.48c.25-.21.58-.45,1-.73a9.84,9.84,0,0,1,1.38-.79A10.71,10.71,0,0,1,38,15.5a8.12,8.12,0,0,1,2.08-.26,7.94,7.94,0,0,1,2.66.42,6.18,6.18,0,0,1,2,1.15,5.12,5.12,0,0,1,1.31,1.73,5,5,0,0,1,.47,2.14A6.55,6.55,0,0,1,46,23.37a9.67,9.67,0,0,1-1.63,2.43,17,17,0,0,1-2.63,2.32c-1,.76-2.2,1.55-3.5,2.36v.06l.48,0,.61-.05.83,0h6.17a.93.93,0,0,1,1.06,1V32a.93.93,0,0,1-1.06,1.06H34.63A.93.93,0,0,1,33.58,32Z" transform="translate(-6.48 -9.36)" style="fill:#666"/><path d="M15.18,46a.93.93,0,0,1,1.05-1.05h.9A.93.93,0,0,1,18.18,46V47.4a3.39,3.39,0,0,1-.06.64,1.36,1.36,0,0,0,0,.29h.06a6.56,6.56,0,0,1,.72-1.18,5.81,5.81,0,0,1,1.27-1.25,7.82,7.82,0,0,1,1.79-1,6.61,6.61,0,0,1,2.37-.4,5.21,5.21,0,0,1,4.2,1.56,7,7,0,0,1,1.33,4.65V60a.93.93,0,0,1-1,1.06h-1A.93.93,0,0,1,26.73,60v-8.6a11.28,11.28,0,0,0-.11-1.6,3.52,3.52,0,0,0-.44-1.28,2.28,2.28,0,0,0-.92-.87,3.42,3.42,0,0,0-1.57-.32,5.08,5.08,0,0,0-2.18.47A5.35,5.35,0,0,0,19.8,49.1,5.79,5.79,0,0,0,18.68,51a6.8,6.8,0,0,0-.4,2.36V60a.93.93,0,0,1-1.06,1.06h-1A.93.93,0,0,1,15.18,60Z" transform="translate(-6.48 -9.36)" style="fill:#c33"/><path d="M34.12,39.56a.93.93,0,0,1,1.06-1.05h1a.92.92,0,0,1,1,1.05v6.56c0,.22,0,.4,0,.56s0,.31,0,.44a2.87,2.87,0,0,0,0,.38h.06A5.2,5.2,0,0,1,38.34,46,7.82,7.82,0,0,1,40,45a5.66,5.66,0,0,1,2.45-.48,6.61,6.61,0,0,1,2.91.63,6.43,6.43,0,0,1,2.24,1.73A7.75,7.75,0,0,1,49,49.55,11.26,11.26,0,0,1,49.51,53,10.75,10.75,0,0,1,49,56.49a7.77,7.77,0,0,1-1.54,2.67,6.84,6.84,0,0,1-5.25,2.32A5.42,5.42,0,0,1,39.77,61a7.31,7.31,0,0,1-1.62-1A5.05,5.05,0,0,1,37,58.41h-.06a1.15,1.15,0,0,0,0,.26,3.8,3.8,0,0,1,.06.7v.8q0,.93-1.05.93h-.8A.93.93,0,0,1,34.12,60Zm3,13.46a7.7,7.7,0,0,0,.29,2.15A6,6,0,0,0,38.26,57a4.27,4.27,0,0,0,1.41,1.3,4,4,0,0,0,2,.48,4.42,4.42,0,0,0,1.83-.39A4.25,4.25,0,0,0,45,57.3a5.36,5.36,0,0,0,1-1.81,7.58,7.58,0,0,0,.37-2.44A8.1,8.1,0,0,0,46,50.67a5.5,5.5,0,0,0-.94-1.82,4.41,4.41,0,0,0-1.46-1.16,4.1,4.1,0,0,0-1.84-.41,4.71,4.71,0,0,0-1.76.33,4.07,4.07,0,0,0-1.49,1,5.07,5.07,0,0,0-1,1.78A8,8,0,0,0,37.13,53Z" transform="translate(-6.48 -9.36)" style="fill:#339"/></svg>